<svg xmlns="http://www.w3.org/2000/svg" viewBox="0 0 32 32">
  <path d="M15.9 2c-3.97 0-4.94.94-5.53 2.35-.13.32-.2.82-.21 1.35L10.13 8h5.77v.5H8.25C6.95 8.5 5.34 9.2 4.86 11.5c-.52 2.5-.54 4.06 0 6.67.4 1.94 1.36 3.33 2.64 3.33H9.5v-3.04c0-1.47 1.27-2.77 2.78-2.77h6.44c1.24 0 2.28-1.07 2.28-2.31V5.6c0-1.2-1.02-2.1-2.28-2.34A18.2 18.2 0 0015.9 2zm-2.9 2a1 1 0 110 2 1 1 0 010-2z" fill="#3776ab"/>
  <path d="M16.1 30c3.97 0 4.94-.94 5.53-2.35.13-.32.2-.82.21-1.35L21.87 24h-5.77v-.5h7.65c1.3 0 2.91-.7 3.39-3 .52-2.5.54-4.06 0-6.67-.4-1.94-1.36-3.33-2.64-3.33H22.5v3.04c0 1.47-1.27 2.77-2.78 2.77h-6.44c-1.24 0-2.28 1.07-2.28 2.31v5.78c0 1.2 1.02 2.1 2.28 2.34A18.2 18.2 0 0016.1 30zm2.9-2a1 1 0 110-2 1 1 0 010 2z" fill="#ffd43b"/>
</svg>
